<svg width="70" height="65" viewBox="0 0 70 65" fill="none" xmlns="http://www.w3.org/2000/svg">
<path d="M46 40.9656H49.75C50.1644 40.9656 50.5 41.3012 50.5 41.7156V43.2156C50.5 43.63 50.1644 43.9656 49.75 43.9656H43V25.9656H38.5V22.9656H43.75C44.9908 22.9656 46 24.0058 46 25.2836V40.9656Z" fill="white"/>
<path fill-rule="evenodd" clip-rule="evenodd" d="M26.1362 22.3789L35.1362 20.0473C36.0831 19.8017 37 20.5437 37 21.5553V44H21.25C20.8356 44 20.5 43.6643 20.5 43.25V41.75C20.5 41.3356 20.8356 41 21.25 41H25V23.8868C25 23.1734 25.4683 22.5518 26.1362 22.3789ZM31.75 32C31.75 32.8282 32.2539 33.5 32.875 33.5C33.4961 33.5 34 32.8282 34 32C34 31.1717 33.4961 30.5 32.875 30.5C32.2539 30.5 31.75 31.1717 31.75 32Z" fill="#EF6461"/>
</svg>
