<svg width="401" height="58" viewBox="0 0 401 58" fill="none" xmlns="http://www.w3.org/2000/svg">
<path d="M192.25 38.4484H197.875C198.497 38.4484 199 38.9519 199 39.5734V41.8234C199 42.445 198.497 42.9484 197.875 42.9484H187.75V15.9484H181V11.4484H188.875C190.736 11.4484 192.25 13.0087 192.25 14.9254V38.4484Z" fill="white"/>
<path fill-rule="evenodd" clip-rule="evenodd" d="M162.454 10.5683L175.954 7.07095C177.375 6.70251 178.75 7.81556 178.75 9.3329V42.9999H155.125C154.503 42.9999 154 42.4965 154 41.8749V39.6249C154 39.0034 154.503 38.4999 155.125 38.4999H160.75V12.8302C160.75 11.7601 161.452 10.8277 162.454 10.5683ZM170.875 24.9999C170.875 26.2424 171.631 27.2499 172.562 27.2499C173.494 27.2499 174.25 26.2424 174.25 24.9999C174.25 23.7575 173.494 22.7499 172.562 22.7499C171.631 22.7499 170.875 23.7575 170.875 24.9999Z" fill="#EF6461"/>
<path d="M25.7294 43L19.6134 33.32C18.9094 33.3787 18.3374 33.408 17.8974 33.408H10.0654V43H5.84141V12.2H17.8974C21.7987 12.2 24.8054 13.1093 26.9174 14.928C29.0587 16.7173 30.1294 19.2693 30.1294 22.584C30.1294 25.0773 29.5427 27.1747 28.3694 28.876C27.2254 30.5773 25.5681 31.8093 23.3974 32.572L30.5694 43H25.7294ZM17.8974 29.58C20.5374 29.58 22.5614 29.008 23.9694 27.864C25.3774 26.6907 26.0814 24.9747 26.0814 22.716C26.0814 20.516 25.3774 18.8587 23.9694 17.744C22.5614 16.6 20.5374 16.028 17.8974 16.028H10.0654V29.58H17.8974ZM51.1023 11.936C54.0649 11.936 56.7783 12.6253 59.2423 14.004C61.7356 15.3827 63.7009 17.2747 65.1383 19.68C66.5756 22.056 67.2943 24.6813 67.2943 27.556C67.2943 30.4307 66.5756 33.0853 65.1383 35.52C63.7009 37.9253 61.7356 39.832 59.2423 41.24C56.7783 42.6187 54.0649 43.308 51.1023 43.308C48.1396 43.308 45.4116 42.6187 42.9183 41.24C40.4543 39.832 38.5036 37.9253 37.0663 35.52C35.6289 33.0853 34.9103 30.4307 34.9103 27.556C34.9103 24.6813 35.6289 22.056 37.0663 19.68C38.5036 17.2747 40.4543 15.3827 42.9183 14.004C45.3823 12.6253 48.1103 11.936 51.1023 11.936ZM51.1463 15.72C49.0049 15.72 47.0103 16.248 45.1623 17.304C43.3436 18.36 41.8916 19.7973 40.8063 21.616C39.7209 23.4053 39.1783 25.3853 39.1783 27.556C39.1783 29.7267 39.7209 31.7213 40.8063 33.54C41.8916 35.3587 43.3436 36.8107 45.1623 37.896C47.0103 38.952 49.0049 39.48 51.1463 39.48C53.2876 39.48 55.2529 38.952 57.0423 37.896C58.8609 36.8107 60.2983 35.3587 61.3543 33.54C62.4396 31.7213 62.9823 29.7267 62.9823 27.556C62.9823 25.3853 62.4396 23.4053 61.3543 21.616C60.2983 19.7973 58.8609 18.36 57.0423 17.304C55.2529 16.248 53.2876 15.72 51.1463 15.72ZM85.821 11.936C88.7837 11.936 91.497 12.6253 93.961 14.004C96.4544 15.3827 98.4197 17.2747 99.857 19.68C101.294 22.056 102.013 24.6813 102.013 27.556C102.013 30.4307 101.294 33.0853 99.857 35.52C98.4197 37.9253 96.4544 39.832 93.961 41.24C91.497 42.6187 88.7837 43.308 85.821 43.308C82.8584 43.308 80.1304 42.6187 77.637 41.24C75.173 39.832 73.2224 37.9253 71.785 35.52C70.3477 33.0853 69.629 30.4307 69.629 27.556C69.629 24.6813 70.3477 22.056 71.785 19.68C73.2224 17.2747 75.173 15.3827 77.637 14.004C80.101 12.6253 82.829 11.936 85.821 11.936ZM85.865 15.72C83.7237 15.72 81.729 16.248 79.881 17.304C78.0624 18.36 76.6104 19.7973 75.525 21.616C74.4397 23.4053 73.897 25.3853 73.897 27.556C73.897 29.7267 74.4397 31.7213 75.525 33.54C76.6104 35.3587 78.0624 36.8107 79.881 37.896C81.729 38.952 83.7237 39.48 85.865 39.48C88.0064 39.48 89.9717 38.952 91.761 37.896C93.5797 36.8107 95.017 35.3587 96.073 33.54C97.1584 31.7213 97.701 29.7267 97.701 27.556C97.701 25.3853 97.1584 23.4053 96.073 21.616C95.017 19.7973 93.5797 18.36 91.761 17.304C89.9717 16.248 88.0064 15.72 85.865 15.72ZM108.064 12.2H113.08L124.344 33.848L135.52 12.2H140.58V43H136.62L136.576 18.404L125.62 39.744H123.024L111.98 18.404V43H108.064V12.2Z" fill="#EF6461"/>
<path d="M224.556 12.2C227.695 12.2 230.159 12.8893 231.948 14.268C233.767 15.6173 234.676 17.4947 234.676 19.9C234.676 21.66 234.177 23.156 233.18 24.388C232.183 25.5907 230.819 26.3973 229.088 26.808C231.229 27.1307 232.901 27.996 234.104 29.404C235.336 30.7827 235.952 32.5133 235.952 34.596C235.952 37.236 234.955 39.304 232.96 40.8C230.995 42.2667 228.267 43 224.776 43H211.4V12.2H224.556ZM224.336 25.268C226.243 25.268 227.709 24.872 228.736 24.08C229.792 23.2587 230.32 22.1 230.32 20.604C230.32 19.1373 229.792 18.008 228.736 17.216C227.709 16.424 226.243 16.0427 224.336 16.072H215.624V25.268H224.336ZM224.336 39.128C226.624 39.1573 228.413 38.732 229.704 37.852C230.995 36.9427 231.64 35.6813 231.64 34.068C231.64 32.5133 230.995 31.296 229.704 30.416C228.413 29.536 226.624 29.096 224.336 29.096H215.624V39.128H224.336ZM256.188 11.936C259.151 11.936 261.864 12.6253 264.328 14.004C266.822 15.3827 268.787 17.2747 270.224 19.68C271.662 22.056 272.38 24.6813 272.38 27.556C272.38 30.4307 271.662 33.0853 270.224 35.52C268.787 37.9253 266.822 39.832 264.328 41.24C261.864 42.6187 259.151 43.308 256.188 43.308C253.226 43.308 250.498 42.6187 248.004 41.24C245.54 39.832 243.59 37.9253 242.152 35.52C240.715 33.0853 239.996 30.4307 239.996 27.556C239.996 24.6813 240.715 22.056 242.152 19.68C243.59 17.2747 245.54 15.3827 248.004 14.004C250.468 12.6253 253.196 11.936 256.188 11.936ZM256.232 15.72C254.091 15.72 252.096 16.248 250.248 17.304C248.43 18.36 246.978 19.7973 245.892 21.616C244.807 23.4053 244.264 25.3853 244.264 27.556C244.264 29.7267 244.807 31.7213 245.892 33.54C246.978 35.3587 248.43 36.8107 250.248 37.896C252.096 38.952 254.091 39.48 256.232 39.48C258.374 39.48 260.339 38.952 262.128 37.896C263.947 36.8107 265.384 35.3587 266.44 33.54C267.526 31.7213 268.068 29.7267 268.068 27.556C268.068 25.3853 267.526 23.4053 266.44 21.616C265.384 19.7973 263.947 18.36 262.128 17.304C260.339 16.248 258.374 15.72 256.232 15.72ZM290.907 11.936C293.87 11.936 296.583 12.6253 299.047 14.004C301.54 15.3827 303.506 17.2747 304.943 19.68C306.38 22.056 307.099 24.6813 307.099 27.556C307.099 30.4307 306.38 33.0853 304.943 35.52C303.506 37.9253 301.54 39.832 299.047 41.24C296.583 42.6187 293.87 43.308 290.907 43.308C287.944 43.308 285.216 42.6187 282.723 41.24C280.259 39.832 278.308 37.9253 276.871 35.52C275.434 33.0853 274.715 30.4307 274.715 27.556C274.715 24.6813 275.434 22.056 276.871 19.68C278.308 17.2747 280.259 15.3827 282.723 14.004C285.187 12.6253 287.915 11.936 290.907 11.936ZM290.951 15.72C288.81 15.72 286.815 16.248 284.967 17.304C283.148 18.36 281.696 19.7973 280.611 21.616C279.526 23.4053 278.983 25.3853 278.983 27.556C278.983 29.7267 279.526 31.7213 280.611 33.54C281.696 35.3587 283.148 36.8107 284.967 37.896C286.815 38.952 288.81 39.48 290.951 39.48C293.092 39.48 295.058 38.952 296.847 37.896C298.666 36.8107 300.103 35.3587 301.159 33.54C302.244 31.7213 302.787 29.7267 302.787 27.556C302.787 25.3853 302.244 23.4053 301.159 21.616C300.103 19.7973 298.666 18.36 296.847 17.304C295.058 16.248 293.092 15.72 290.951 15.72ZM338.978 43H333.874L323.05 28.788L317.374 34.948V43H313.15V12.2H317.374V29.492L333.126 12.2H338.186L325.998 25.488L338.978 43ZM344.259 12.2H365.643V16.028H348.483V25.532H363.839V29.36H348.483V39.172H366.171V43H344.259V12.2ZM392.893 43L386.777 33.32C386.073 33.3787 385.501 33.408 385.061 33.408H377.229V43H373.005V12.2H385.061C388.963 12.2 391.969 13.1093 394.081 14.928C396.223 16.7173 397.293 19.2693 397.293 22.584C397.293 25.0773 396.707 27.1747 395.533 28.876C394.389 30.5773 392.732 31.8093 390.561 32.572L397.733 43H392.893ZM385.061 29.58C387.701 29.58 389.725 29.008 391.133 27.864C392.541 26.6907 393.245 24.9747 393.245 22.716C393.245 20.516 392.541 18.8587 391.133 17.744C389.725 16.6 387.701 16.028 385.061 16.028H377.229V29.58H385.061Z" fill="white"/>
</svg>
